<svg width="41" height="37" viewBox="0 0 41 37" fill="none" xmlns="http://www.w3.org/2000/svg">
<path d="M37.9672 36.625C37.4818 36.6391 37.0062 36.4865 36.6195 36.1927C36.2329 35.8988 35.9586 35.4814 35.8422 35.0099C34.8854 31.2189 32.7784 27.8171 29.8106 25.2716C26.8428 22.7262 23.1597 21.1619 19.2672 20.7937V23.1737C19.2669 23.918 19.0469 24.6458 18.6349 25.2657C18.2229 25.8856 17.6371 26.3702 16.951 26.6587C16.2069 27.0007 15.3799 27.1205 14.5694 27.0036C13.7588 26.8868 12.9993 26.5382 12.3822 25.9999L1.62972 16.6287C1.2174 16.2776 0.886244 15.8411 0.659154 15.3495C0.432064 14.8578 0.314453 14.3228 0.314453 13.7812C0.314453 13.2396 0.432064 12.7045 0.659154 12.2129C0.886244 11.7213 1.2174 11.2848 1.62972 10.9337L12.3822 1.54119C13.0075 0.993606 13.7795 0.641364 14.6029 0.528056C15.4263 0.414748 16.2648 0.545348 17.0147 0.903694C17.7009 1.19223 18.2866 1.67681 18.6987 2.29672C19.1107 2.91664 19.3306 3.64434 19.331 4.38869V6.87494C25.1029 7.32121 30.498 9.9147 34.4515 14.1436C38.4051 18.3726 40.63 23.9298 40.6872 29.7187C40.6843 31.5027 40.4631 33.2797 40.0285 35.0099C39.9121 35.4814 39.6378 35.8988 39.2512 36.1927C38.8645 36.4865 38.3889 36.6391 37.9035 36.625H37.9672Z" fill="#CAC9C9"/>
</svg>
